<mxfile host="app.diagrams.net" modified="2023-04-12T06:03:13.296Z" agent="Mozilla/5.0 (Windows NT 10.0; Win64; x64) AppleWebKit/537.36 (KHTML, like Gecko) Chrome/112.0.0.0 Safari/537.36" version="21.1.2" etag="jBaYLOQbBWyV3BpFSN8S" type="github">
  <diagram name="Page-1" id="DAS95_0ZTRnzV0nzD3CN">
    <mxGraphModel>
      <root>
        <mxCell id="0" />
        <mxCell id="1" parent="0" />
      </root>
    </mxGraphModel>
  </diagram>
</mxfile>
